<svg xmlns="http://www.w3.org/2000/svg" viewBox="0 0 1917 2980"><path d="M-3 1551.2L1917 128v1218.8L-3 2982.2z" fill="#d1cfe1" opacity=".1"/><path opacity=".7" d="M-59.3 41.4c36-45.8 101.7-55 148.8-20.8h0l810.7 587.2c27 19.5 27 59.8 0 79.3h0L89.5 1274.4c-47.1 34.2-112.8 25-148.8-20.8-35.4-45-29.7-109.8 13-148h0l262.7-235c28.8 11.5 60.3 17.8 93.2 17.8 139.5 0 252.6-113.1 252.6-252.7S449.1 383 309.6 383c-39.8 0-77.5 9.2-111 25.6h0L-46.3 189.4c-42.7-38.2-48.4-103-13-148zM310 450c102.5 0 185.5 83.3 185.5 186s-83 186-185.5 186c-11.8 0-23.4-1.1-34.6-3.2-85.9-16.2-150.9-91.9-150.9-182.8 0-83.4 54.7-154 130.2-177.6 17.4-5.5 36-8.4 55.3-8.4z" fill="#f8f6f9"/></svg>